<?xml version="1.0" standalone="no"?>
<!DOCTYPE svg PUBLIC "-//W3C//DTD SVG 20010904//EN"
 "http://www.w3.org/TR/2001/REC-SVG-20010904/DTD/svg10.dtd">
<svg version="1.0" xmlns="http://www.w3.org/2000/svg"
 width="650.000000pt" height="650.000000pt" viewBox="0 0 650.000000 650.000000"
 preserveAspectRatio="xMidYMid meet">
<metadata>
Created by potrace 1.14, written by Peter Selinger 2001-2017
</metadata>
<g transform="translate(0.000000,650.000000) scale(0.100000,-0.100000)"
fill="#000000" stroke="none">
<path d="M5225 6491 c-6 -5 -98 -47 -206 -94 -108 -47 -216 -94 -240 -105 -24
-11 -118 -53 -209 -92 -91 -40 -194 -85 -229 -102 l-65 -29 60 -35 c32 -19 67
-37 77 -40 9 -4 17 -10 17 -15 0 -5 4 -9 10 -9 10 0 239 -130 282 -161 29 -20
27 -21 128 24 25 11 106 46 180 79 74 32 149 65 165 73 107 48 181 81 343 151
100 43 182 81 182 84 0 5 -150 96 -409 246 -49 28 -75 36 -86 25z"/>
<path d="M5731 6199 c-13 -5 -38 -16 -55 -24 -17 -8 -103 -45 -191 -83 -88
-39 -226 -99 -307 -135 -82 -36 -148 -62 -148 -58 0 3 -4 1 -8 -5 -4 -6 -25
-18 -47 -26 -22 -9 -70 -30 -107 -47 -36 -17 -72 -31 -79 -31 -8 0 -6 -7 6
-20 10 -11 21 -17 26 -15 4 3 10 1 14 -5 4 -6 27 -22 53 -35 26 -14 56 -31 66
-38 46 -29 122 -74 136 -80 8 -4 33 -18 55 -32 22 -14 50 -29 62 -35 11 -5 25
-15 30 -22 4 -7 9 -85 10 -173 0 -88 2 -165 2 -172 1 -8 21 -3 59 14 57 25
102 45 112 48 6 2 75 32 118 51 17 8 47 20 65 28 17 8 72 33 120 55 49 23 90
41 92 41 2 0 38 16 79 35 42 19 79 35 82 35 3 0 31 12 62 26 48 22 92 41 112
49 3 1 20 8 38 16 l32 13 1 103 c0 57 0 132 0 168 0 36 0 71 0 78 -1 11 -35
33 -173 112 -37 21 -254 149 -273 161 -14 8 -28 9 -44 3z"/>
<path d="M4200 6038 c-62 -28 -91 -41 -531 -234 -315 -137 -384 -171 -373
-181 7 -7 15 -13 18 -13 2 0 57 -31 122 -70 64 -38 118 -70 120 -70 2 0 44
-25 95 -55 50 -30 98 -55 107 -55 8 0 49 15 91 34 99 44 327 145 366 161 17 8
59 26 95 42 36 16 143 63 237 104 95 41 171 78 170 83 -2 5 -12 14 -23 20 -10
6 -21 13 -24 16 -3 3 -16 11 -30 17 -14 7 -43 24 -65 37 -22 14 -56 33 -75 44
-66 37 -105 59 -156 90 -28 18 -56 32 -63 32 -6 0 -11 5 -11 10 0 15 -20 11
-70 -12z"/>
<path d="M4665 5733 c-44 -19 -136 -60 -205 -90 -69 -30 -138 -61 -155 -68
-16 -8 -109 -48 -205 -90 -96 -43 -208 -92 -248 -110 l-74 -33 60 -36 c33 -20
65 -36 71 -36 6 0 11 -4 11 -9 0 -5 6 -11 13 -13 7 -2 81 -43 164 -92 l151
-89 0 -169 c0 -93 3 -172 6 -175 3 -4 17 0 31 7 14 7 28 10 31 7 4 -4 -5 -11
-20 -17 -15 -5 -53 -22 -84 -36 -31 -14 -70 -32 -87 -39 -16 -7 -48 -21 -70
-31 -22 -9 -42 -18 -45 -19 -3 -1 -31 -13 -62 -28 -31 -15 -59 -27 -62 -27 -3
0 -35 -14 -71 -31 l-65 -30 -1 -107 c-1 -128 2 -246 5 -249 4 -5 111 42 114
50 2 4 9 7 17 7 7 0 54 18 105 41 50 22 94 38 97 35 3 -2 -10 -11 -28 -19
-121 -50 -285 -122 -289 -127 -3 -3 -12 -6 -20 -8 -8 -2 -28 -10 -45 -18 -16
-9 -66 -30 -110 -49 -44 -18 -114 -48 -155 -67 -41 -19 -101 -45 -132 -59
l-58 -24 0 -182 0 -182 48 21 c26 11 65 28 87 38 22 10 90 39 150 65 61 26
124 53 140 61 27 11 193 85 270 119 17 7 61 27 98 44 38 17 71 31 73 31 3 0
29 11 57 25 l52 24 0 181 c0 99 -1 180 -3 180 -2 0 -28 -12 -58 -26 -31 -14
-58 -24 -61 -21 -5 6 18 17 157 77 41 18 108 48 148 66 41 19 80 34 88 34 8 0
14 4 14 9 0 5 20 15 45 22 25 7 45 17 45 21 0 4 3 7 8 6 4 -1 32 8 62 21 l55
23 0 179 c0 98 -2 179 -4 179 -17 0 -81 -25 -81 -32 0 -4 -6 -8 -13 -8 -12 0
-200 -80 -270 -115 -16 -8 -27 -10 -25 -4 2 6 66 37 143 70 77 34 158 69 180
79 22 10 117 52 210 93 94 41 192 85 218 97 26 12 50 20 54 17 3 -4 -6 -11
-21 -17 -15 -5 -50 -21 -79 -34 -29 -13 -72 -32 -96 -42 -24 -11 -78 -35 -119
-54 l-74 -35 1 -179 c1 -99 3 -181 5 -183 2 -2 10 2 18 9 7 7 20 14 28 16 8 1
29 9 45 17 60 28 187 85 191 85 2 0 29 12 61 26 32 14 72 32 88 39 17 8 57 26
90 40 33 15 78 34 100 43 22 8 45 18 50 22 6 4 46 22 90 40 44 18 84 37 90 41
5 5 16 9 24 9 23 0 2 -14 -59 -39 -50 -21 -121 -52 -267 -118 -29 -13 -53 -27
-54 -31 0 -4 -1 -83 -2 -177 -1 -192 -6 -183 78 -145 22 10 99 44 170 75 72
32 133 59 138 62 4 2 7 0 7 -5 0 -5 -17 -16 -37 -24 -21 -9 -130 -56 -243
-106 -113 -49 -218 -95 -235 -102 -16 -8 -63 -28 -103 -47 -41 -18 -75 -33
-77 -33 -2 0 -36 -15 -77 -34 -40 -18 -83 -36 -95 -40 -25 -8 -24 0 -24 -181
0 -47 0 -110 1 -139 l0 -55 38 16 c20 8 60 26 87 38 28 13 140 63 250 110 110
48 228 100 263 116 35 16 65 29 67 29 2 0 36 15 77 33 40 19 99 44 131 57 l57
24 1 60 c1 118 -1 300 -4 302 -2 2 -16 -3 -31 -11 -34 -18 -36 -18 -36 -5 0 6
5 10 10 10 9 0 30 9 145 61 22 10 96 42 165 72 69 30 153 67 188 82 l62 28 1
71 c2 182 0 248 -5 253 -3 4 -1 12 5 20 25 30 -19 15 -191 -64 -30 -14 -86
-39 -125 -55 -38 -16 -90 -39 -115 -50 -96 -44 -133 -58 -138 -53 -3 3 12 12
34 21 l39 15 -2 176 c-1 96 -4 177 -6 179 -2 2 -87 -32 -188 -77 -101 -44
-200 -87 -219 -94 -19 -7 -63 -26 -97 -43 -35 -17 -63 -26 -63 -21 0 5 16 15
35 23 21 9 35 22 36 33 0 10 1 90 1 178 l1 160 -147 88 c-82 48 -152 87 -157
87 -5 0 -9 5 -9 10 0 6 -5 10 -10 10 -6 0 -40 18 -76 40 -36 22 -69 40 -73 39
-3 0 -42 -16 -86 -36z"/>
<path d="M3005 5514 c-132 -58 -258 -113 -280 -123 -22 -10 -69 -31 -105 -46
-36 -15 -96 -42 -135 -59 -38 -18 -100 -45 -137 -61 l-67 -29 51 -33 c27 -18
52 -33 54 -33 2 0 34 -18 70 -40 36 -22 67 -40 69 -40 2 0 33 -19 71 -41 100
-61 152 -89 164 -89 5 0 29 9 53 19 23 11 73 33 110 50 38 17 70 31 73 31 2 0
38 16 80 35 41 19 77 35 79 35 2 0 32 13 67 29 35 16 163 73 286 126 l222 98
-32 20 c-94 58 -441 257 -446 257 -4 -1 -115 -48 -247 -106z"/>
<path d="M6165 5540 c-51 -24 -98 -44 -265 -116 -74 -31 -139 -61 -145 -66 -6
-5 -10 -82 -11 -187 l-1 -179 71 30 c39 16 90 38 114 49 106 48 132 59 202 89
41 18 79 36 83 40 6 6 11 209 8 333 -1 31 -3 32 -56 7z"/>
<path d="M3679 5302 c-31 -15 -76 -35 -100 -46 -24 -10 -66 -29 -94 -41 -27
-12 -84 -37 -125 -54 -41 -18 -103 -46 -138 -62 -35 -16 -65 -29 -67 -29 -2 0
-23 -9 -47 -19 -24 -11 -103 -46 -177 -79 -74 -32 -136 -63 -138 -69 -2 -6 10
-17 27 -24 16 -8 30 -17 30 -21 0 -5 5 -8 11 -8 5 0 73 -37 150 -82 77 -46
162 -95 187 -110 l47 -26 3 -176 c1 -97 6 -176 11 -176 4 0 68 27 142 60 74
33 145 65 159 71 14 6 33 15 42 20 22 11 28 11 28 0 0 -5 -11 -12 -25 -15 -13
-3 -64 -25 -112 -47 -125 -59 -220 -100 -238 -104 -15 -4 -165 -73 -197 -91
-15 -8 -29 -14 -30 -14 -5 2 -79 -30 -120 -51 -21 -11 -38 -16 -38 -11 0 7 37
25 165 83 137 61 180 82 185 89 3 5 5 85 5 179 l0 170 -59 36 c-32 19 -62 35
-67 35 -5 0 -9 5 -9 10 0 6 -4 10 -8 10 -5 0 -79 41 -165 90 -86 50 -160 90
-166 90 -6 0 -57 -21 -113 -46 -57 -25 -227 -100 -378 -166 -151 -66 -297
-130 -325 -143 -27 -12 -74 -33 -103 -45 -59 -26 -61 -23 38 -78 81 -45 334
-195 359 -212 19 -14 20 -26 23 -196 l3 -180 -55 -25 c-30 -13 -57 -24 -60
-25 -3 0 -22 -8 -42 -17 -21 -10 -42 -17 -48 -17 -5 0 -10 -4 -10 -9 0 -5 -10
-11 -22 -14 -30 -6 -248 -103 -259 -114 -5 -5 -8 -89 -7 -186 l3 -176 68 30
c38 17 71 28 74 25 3 -3 -6 -10 -21 -15 -14 -6 -45 -19 -69 -30 -23 -10 -116
-51 -207 -91 -91 -40 -205 -90 -254 -111 l-89 -39 -36 21 c-35 21 -90 53 -161
92 -19 10 -42 25 -50 32 -8 7 -35 23 -60 35 -25 13 -68 38 -96 56 -28 19 -54
34 -58 34 -3 0 -6 -83 -6 -185 0 -119 4 -185 10 -185 6 0 27 -11 48 -23 20
-13 71 -44 112 -67 41 -24 127 -75 190 -113 63 -38 116 -64 118 -58 2 6 8 11
14 11 6 0 83 32 172 71 88 39 181 80 206 91 25 11 59 26 76 33 135 62 164 73
164 66 0 -5 -15 -14 -32 -21 -18 -7 -52 -22 -76 -33 l-42 -21 0 -178 c0 -98 2
-178 5 -178 4 0 304 129 360 155 17 7 53 23 80 35 28 12 70 31 95 42 25 11 59
26 75 33 17 7 55 24 85 37 30 14 105 46 165 73 l110 48 0 179 c0 193 0 193
-53 164 -15 -8 -70 -33 -122 -56 -52 -23 -103 -45 -112 -51 -22 -11 -28 -11
-28 -1 0 4 17 14 38 21 20 8 66 27 102 43 36 17 83 38 105 48 22 9 62 27 89
39 27 12 69 31 95 41 25 10 98 42 161 70 63 28 138 61 165 72 28 12 52 23 55
25 6 6 7 342 0 353 -3 5 -61 -16 -130 -47 -276 -121 -606 -265 -620 -270 -10
-4 -12 -3 -5 4 6 6 44 25 85 43 41 18 98 43 125 56 l51 23 -2 178 c-1 98 -2
180 -3 182 0 2 -12 -4 -26 -13 -14 -9 -25 -14 -25 -10 0 3 -11 -1 -25 -10 -25
-17 -57 -23 -39 -8 5 5 54 28 109 52 55 23 105 47 112 52 7 6 18 8 25 6 7 -3
-13 -16 -45 -31 l-57 -26 0 -180 c0 -167 1 -180 18 -174 16 6 44 17 137 59 22
9 42 18 45 19 3 0 25 11 50 22 25 12 79 36 120 53 41 17 108 47 148 66 40 19
76 34 79 34 5 0 14 4 156 69 49 23 92 41 96 41 8 0 113 49 121 57 2 2 4 82 5
178 0 190 1 189 -55 160 -17 -9 -30 -11 -30 -6 0 5 10 13 22 17 13 4 50 19 83
35 33 15 143 63 245 108 102 44 196 86 209 93 l25 13 0 177 1 177 -25 13 c-14
7 -72 41 -129 76 -57 34 -105 62 -107 62 -2 0 -48 27 -103 60 -55 33 -106 60
-113 59 -7 0 -38 -12 -69 -27z m-1089 -1326 c0 -2 -64 -32 -142 -66 -79 -35
-149 -67 -156 -73 -7 -5 -15 -7 -19 -3 -8 8 -10 7 77 45 41 19 107 48 145 67
65 30 95 40 95 30z m-140 -435 c0 -5 -30 -21 -67 -37 -38 -16 -71 -32 -74 -37
-3 -5 -8 -8 -10 -6 -2 1 -14 -1 -26 -5 -23 -7 -23 -9 -23 -187 0 -109 4 -179
10 -179 8 0 110 44 133 57 4 2 7 1 7 -4 0 -4 -15 -14 -32 -22 -18 -8 -56 -25
-85 -38 -28 -12 -53 -23 -55 -23 -2 0 -4 83 -3 185 0 102 -2 185 -5 185 -6 0
-175 -73 -259 -111 -24 -11 -46 -18 -48 -15 -5 5 65 39 157 76 25 10 77 32
115 50 39 17 79 35 90 40 64 27 142 62 155 70 20 12 20 12 20 1z m-254 -496
c-11 -8 -24 -15 -29 -15 -8 0 -69 -26 -172 -74 -43 -21 -68 -26 -54 -12 8 8
254 115 264 115 6 0 1 -6 -9 -14z m-266 -115 c0 -5 -4 -10 -10 -10 -5 0 -10 5
-10 10 0 6 5 10 10 10 6 0 10 -4 10 -10z"/>
<path d="M2105 5120 c-71 -32 -150 -68 -175 -79 -25 -10 -97 -42 -161 -70 -64
-28 -121 -51 -127 -51 -7 0 -12 -4 -12 -10 0 -5 -8 -10 -18 -10 -10 0 -21 -3
-25 -6 -3 -3 -70 -34 -149 -68 -79 -34 -142 -66 -142 -71 1 -5 104 -69 229
-142 170 -100 233 -132 249 -127 19 6 87 36 256 111 30 14 69 31 85 38 17 7
53 23 80 36 28 12 55 23 60 25 12 3 169 72 273 120 41 19 77 34 80 34 4 1 34
14 66 29 l60 29 -40 21 c-21 11 -57 32 -79 45 -22 14 -62 38 -90 54 -86 49
-129 74 -160 93 -61 37 -105 59 -117 58 -7 0 -71 -27 -143 -59z"/>
<path d="M6095 4753 c-66 -30 -169 -75 -230 -101 -60 -25 -113 -50 -116 -55
-9 -12 -5 -357 3 -357 4 0 43 17 85 36 43 20 99 44 125 55 25 10 63 27 84 38
21 11 40 18 43 16 7 -8 3 -10 -119 -63 -63 -27 -142 -62 -175 -77 -83 -37
-104 -46 -230 -101 -60 -26 -132 -57 -160 -70 -27 -12 -75 -33 -105 -46 l-55
-25 2 -169 c0 -93 2 -174 2 -181 1 -7 30 2 79 23 224 102 255 115 242 99 -6
-7 -27 -19 -45 -25 -19 -6 -61 -24 -95 -41 -33 -16 -62 -29 -65 -29 -4 0 -33
-13 -178 -79 -37 -17 -69 -31 -71 -31 -3 0 -35 -14 -73 -31 -91 -41 -115 -52
-203 -89 -41 -17 -79 -35 -83 -39 -12 -11 -14 -361 -3 -361 5 0 50 19 100 41
50 23 124 57 164 75 39 18 72 30 72 27 0 -3 6 -1 13 5 6 5 62 31 122 57 61 26
134 58 163 71 28 13 54 24 57 25 10 2 267 117 271 122 7 7 6 348 -1 355 -5 5
-30 -5 -88 -35 -16 -8 -31 -12 -34 -9 -8 8 -8 7 57 35 30 13 73 31 95 41 22
10 99 44 170 75 72 31 144 62 160 70 84 38 128 55 133 50 3 -2 -10 -11 -29
-19 -84 -35 -358 -155 -394 -172 l-40 -19 -1 -178 c0 -97 3 -177 7 -177 9 0
98 36 122 50 11 7 17 7 17 0 0 -6 -8 -13 -17 -16 -31 -10 -68 -26 -226 -98
-43 -20 -80 -36 -82 -36 -3 0 -30 -12 -62 -26 -32 -14 -71 -32 -88 -39 -16 -8
-56 -25 -88 -39 -32 -14 -62 -26 -67 -26 -6 0 -10 -6 -11 -12 -4 -52 -3 -351
1 -353 3 -2 25 5 48 15 23 11 42 15 42 11 0 -5 -15 -14 -32 -21 -18 -7 -55
-23 -83 -35 -166 -73 -197 -86 -202 -81 -4 3 11 13 33 21 154 62 163 68 165
105 3 122 1 309 -5 318 -4 6 -23 2 -54 -13 -26 -12 -96 -44 -157 -70 -60 -26
-137 -60 -170 -75 -56 -25 -93 -41 -105 -45 -3 -1 -25 -11 -50 -23 -47 -22
-288 -128 -377 -165 -61 -25 -55 1 -54 -236 0 -79 2 -145 4 -147 2 -2 57 20
123 50 65 30 153 69 194 86 82 36 156 69 238 106 29 13 55 24 57 24 2 0 34 14
71 30 37 17 69 29 71 26 4 -4 -101 -56 -113 -56 -3 0 -138 -62 -142 -65 -3 -2
-4 -120 -2 -313 0 -33 4 -51 10 -47 6 3 10 1 10 -4 0 -6 -4 -11 -10 -11 -5 0
-39 -13 -74 -30 -36 -16 -94 -41 -128 -56 -35 -14 -87 -37 -116 -50 -29 -13
-80 -36 -115 -50 -34 -14 -66 -30 -71 -34 -8 -8 -11 -348 -3 -357 3 -2 91 34
196 80 105 47 191 81 191 77 0 -4 -26 -18 -57 -30 -32 -13 -62 -27 -68 -31 -5
-4 -68 -32 -140 -62 -71 -30 -164 -70 -205 -89 -42 -19 -87 -39 -100 -43 -14
-4 -29 -11 -35 -15 -5 -4 -39 -20 -75 -35 -36 -15 -81 -35 -100 -43 -19 -9
-37 -17 -40 -18 -3 0 -19 -7 -37 -15 l-32 -13 -3 -120 c-2 -67 -2 -149 0 -183
3 -71 -7 -70 117 -13 88 40 96 44 295 129 183 79 173 75 285 126 44 20 101 45
126 55 70 28 143 63 149 71 3 4 5 85 4 181 0 165 -1 173 -20 170 -10 -2 -23
-8 -29 -13 -11 -11 -25 -12 -25 -1 0 4 17 14 38 21 20 8 66 27 102 43 76 35
146 66 178 79 47 19 70 29 162 72 l95 44 -2 169 c-1 93 -2 172 -2 177 -2 14
-22 7 -118 -38 -52 -25 -97 -45 -100 -45 -2 0 -24 -9 -49 -20 -24 -11 -65 -30
-91 -41 -27 -12 -56 -26 -65 -31 -10 -5 -18 -5 -18 0 0 5 55 33 123 62 67 29
149 66 183 81 63 29 102 45 119 49 6 1 26 10 45 20 31 17 233 106 260 115 16
5 72 30 128 55 35 17 68 30 73 30 5 0 9 24 9 53 1 28 2 112 3 184 2 151 11
142 -91 96 -30 -13 -56 -22 -59 -19 -4 3 11 13 33 22 21 8 59 25 84 36 25 11
79 35 120 53 41 18 100 43 130 57 30 14 106 47 168 73 l112 49 0 45 c3 342 0
1064 -4 1068 -2 3 -28 -7 -57 -21 -28 -15 -54 -24 -57 -21 -4 3 4 8 16 12 12
3 22 9 22 13 0 4 18 12 40 19 36 10 40 15 41 44 1 69 -2 331 -4 332 -1 1 -56
-22 -122 -52z m115 -1071 c0 -5 -19 -16 -42 -27 -24 -10 -92 -40 -152 -67 -60
-27 -111 -46 -114 -44 -2 3 29 20 69 38 41 18 110 49 154 70 44 20 81 36 83
37 1 1 2 -3 2 -7z m-655 -670 c-6 -5 -39 -21 -75 -36 -36 -16 -80 -35 -97 -42
-18 -8 -33 -11 -33 -7 0 5 37 23 83 42 45 19 86 38 92 43 5 4 16 8 24 8 9 0
11 -3 6 -8z"/>
<path d="M5125 4705 c-49 -23 -94 -43 -100 -44 -5 -1 -38 -16 -73 -32 -35 -16
-65 -29 -67 -29 -5 0 -136 -59 -157 -70 -10 -6 -25 -10 -33 -10 -8 0 -15 -5
-15 -12 0 -6 -3 -9 -6 -6 -3 3 -56 -17 -117 -44 -62 -27 -134 -59 -162 -71
-27 -12 -72 -33 -99 -47 l-49 -25 1 -173 c0 -96 3 -176 5 -179 3 -2 44 14 92
36 47 23 88 41 90 41 3 0 28 11 57 24 60 27 131 58 138 61 3 1 25 11 50 22 25
11 95 42 155 68 61 26 138 61 173 77 35 16 75 33 90 39 79 29 122 55 123 74 2
57 1 337 -2 339 -2 2 -44 -15 -94 -39z"/>
<path d="M1145 4699 c-49 -22 -108 -48 -130 -59 -37 -17 -300 -130 -335 -144
-8 -3 -22 -10 -30 -15 -8 -5 -93 -43 -187 -83 l-172 -73 -1 -180 0 -180 111
-65 c62 -36 117 -67 123 -69 6 -2 13 -7 16 -11 3 -3 39 -25 80 -49 41 -23 89
-50 105 -61 17 -10 33 -19 36 -19 3 -1 6 72 7 162 0 89 1 169 1 178 1 11 20
24 51 35 28 10 50 22 50 28 0 5 3 7 6 4 3 -3 51 14 107 39 56 25 116 51 132
58 17 7 75 33 130 58 55 24 165 73 245 107 80 34 167 72 194 84 l48 22 -41 27
c-22 15 -43 27 -46 27 -5 0 -73 41 -131 78 -10 6 -26 15 -34 19 -8 4 -59 33
-112 65 -53 32 -105 58 -115 57 -10 0 -58 -19 -108 -40z"/>
<path d="M1707 4435 c-26 -14 -47 -22 -47 -18 0 3 -6 1 -12 -5 -7 -5 -62 -31
-123 -57 -116 -50 -160 -69 -265 -116 -36 -15 -155 -68 -265 -116 -110 -48
-201 -91 -203 -95 -1 -5 -2 -86 -2 -181 l0 -173 76 -45 c41 -24 92 -54 112
-66 20 -12 44 -25 52 -30 8 -4 64 -36 123 -71 105 -62 108 -63 137 -48 17 8
30 11 30 6 0 -5 -16 -14 -35 -20 -31 -10 -39 -8 -82 16 -26 16 -51 33 -55 39
-4 5 -8 6 -8 2 0 -4 -20 6 -44 23 -25 16 -47 30 -50 30 -2 0 -26 13 -53 29
-147 89 -326 191 -334 191 -5 0 -9 4 -9 9 0 5 -8 11 -17 14 -19 6 -94 48 -103
57 -3 3 -58 36 -122 72 l-118 67 0 -178 c0 -160 2 -180 18 -194 10 -10 22 -17
25 -17 4 0 26 -11 48 -26 22 -14 56 -34 75 -45 19 -10 51 -29 72 -40 20 -12
81 -48 135 -80 53 -32 114 -68 135 -79 20 -11 53 -30 72 -42 19 -11 55 -32 80
-46 25 -13 52 -31 61 -38 8 -8 21 -14 27 -14 7 0 12 -3 12 -8 0 -4 15 -14 33
-21 17 -8 63 -33 101 -56 l68 -42 137 59 c75 32 150 65 168 73 17 8 62 28 100
44 l68 29 1 181 c1 100 -1 181 -3 181 -6 0 -137 -56 -198 -85 -27 -13 -70 -31
-95 -41 -25 -10 -55 -24 -68 -32 -12 -8 -25 -12 -29 -8 -9 8 -21 3 217 105
118 52 235 103 260 114 82 36 125 55 160 70 19 8 60 26 90 40 30 14 79 35 108
47 28 12 53 28 53 34 1 6 2 87 3 179 l1 169 -73 44 c-40 24 -74 44 -77 44 -2
0 -40 23 -85 50 -45 28 -83 50 -86 50 -2 0 -34 19 -71 41 -38 23 -70 43 -73
44 -3 2 -27 -7 -53 -20z"/>
<path d="M4555 4079 c-88 -38 -173 -76 -190 -84 -16 -7 -55 -24 -85 -38 -30
-14 -76 -34 -102 -46 -26 -11 -50 -21 -54 -21 -4 0 -36 -13 -71 -30 -34 -16
-65 -30 -68 -30 -2 0 -46 -20 -98 -44 -52 -24 -103 -47 -115 -50 -24 -8 -23 6
-23 -235 0 -68 2 -126 5 -128 6 -6 49 10 136 50 30 14 98 44 150 67 52 23 113
50 135 60 22 10 69 30 105 45 36 15 98 42 138 61 40 19 75 34 78 34 6 0 72 30
148 66 28 13 56 24 63 24 7 0 13 8 14 18 4 70 3 352 -1 352 -3 -1 -77 -32
-165 -71z"/>
<path d="M5175 3975 c-63 -30 -166 -75 -171 -75 -3 0 -42 -17 -87 -38 -45 -21
-102 -47 -127 -57 -25 -10 -94 -41 -155 -67 -60 -27 -119 -53 -130 -58 -24
-10 -141 -62 -209 -93 l-48 -22 0 -173 c0 -95 2 -176 5 -179 5 -5 171 65 375
158 35 16 65 29 67 29 2 0 32 13 67 29 35 16 86 38 113 49 28 11 90 38 138 61
49 23 91 41 94 41 3 0 30 11 60 25 33 16 53 32 54 43 0 9 0 71 0 137 1 232 5
214 -46 190z"/>
<path d="M3610 3664 c-58 -24 -118 -51 -135 -58 -16 -7 -64 -28 -105 -46 -41
-18 -103 -46 -138 -62 -34 -15 -64 -28 -67 -28 -2 0 -43 -18 -90 -40 -47 -22
-88 -40 -91 -40 -3 0 -34 -13 -68 -29 -33 -15 -85 -39 -113 -51 l-53 -24 0
-178 c0 -98 4 -178 9 -178 5 0 44 16 87 35 44 20 88 40 99 44 11 5 40 18 65
29 64 29 384 168 455 199 58 24 89 38 186 82 25 12 51 21 57 21 7 0 12 8 13
18 4 67 3 352 -1 352 -3 -1 -52 -21 -110 -46z"/>
<path d="M290 3391 l0 -179 28 -18 c15 -11 36 -21 46 -24 11 -3 21 -11 24 -18
2 -7 -17 -1 -44 13 -26 14 -49 25 -50 25 -2 0 -4 -81 -4 -180 l0 -180 38 -20
c20 -11 51 -29 67 -39 17 -10 46 -27 65 -38 269 -154 460 -269 460 -277 0 -5
-6 -4 -12 2 -7 5 -37 24 -65 41 l-53 30 0 -182 0 -182 230 -135 c126 -74 230
-138 230 -142 0 -7 -189 98 -200 111 -3 3 -18 13 -35 21 -16 8 -65 36 -107 63
-43 26 -80 47 -83 47 -2 0 -35 19 -72 42 -38 22 -90 54 -118 70 -78 45 -187
107 -225 130 -19 11 -54 31 -77 45 l-43 25 0 -186 c0 -103 4 -186 9 -186 12 0
181 -103 176 -108 -2 -2 -41 19 -88 47 -46 28 -87 51 -91 51 -3 0 -6 -81 -6
-180 l0 -179 60 -33 c33 -18 60 -36 60 -40 0 -9 -78 30 -86 43 -3 5 -12 9 -20
9 -12 0 -14 -30 -14 -178 l0 -178 67 -39 c37 -22 72 -42 77 -44 6 -2 13 -7 16
-11 3 -3 37 -24 75 -45 39 -21 218 -125 398 -232 l328 -193 107 46 c59 25 121
52 137 60 17 7 75 33 130 57 l100 43 1 181 1 181 -23 -9 c-27 -10 -328 -142
-390 -170 -22 -11 -45 -19 -52 -19 -16 0 -166 83 -267 148 -11 6 -27 15 -35
19 -8 4 -32 17 -53 30 -21 13 -53 32 -70 42 -270 155 -417 244 -417 252 0 5
36 -13 81 -41 44 -27 82 -50 84 -50 2 0 41 -22 87 -50 46 -27 86 -50 89 -50 7
0 10 292 3 338 -3 18 -11 32 -19 32 -7 0 -20 6 -27 13 -7 7 -33 24 -58 38 -25
13 -47 26 -50 29 -10 10 -65 41 -82 47 -10 3 -18 10 -18 15 0 5 -5 6 -10 3 -6
-3 -10 -1 -10 5 0 7 3 10 8 8 6 -2 180 -106 232 -138 76 -46 154 -90 161 -90
5 0 9 -5 9 -11 0 -10 -17 -2 -75 38 -11 7 -23 13 -27 13 -5 0 -8 -81 -8 -179
l0 -179 133 -78 c72 -44 141 -84 152 -90 39 -21 70 -39 75 -44 3 -3 29 -18 58
-34 l54 -28 61 27 c34 15 90 40 125 56 35 16 65 29 68 29 2 0 32 13 66 29 56
26 102 46 278 123 25 10 59 25 75 33 61 28 142 63 215 94 l75 31 0 167 c-1 93
-4 177 -8 188 -6 17 1 23 41 39 26 11 84 37 130 58 46 21 85 38 87 38 4 0 49
20 185 81 l65 30 0 177 c0 97 -4 176 -8 176 -8 -2 -48 -15 -57 -19 -3 -1 -27
-12 -55 -24 -27 -12 -63 -29 -80 -36 -16 -7 -46 -20 -65 -28 -19 -8 -62 -27
-95 -42 -87 -40 -146 -65 -151 -65 -3 0 -2 6 3 13 4 6 8 91 8 188 l0 177 -23
-9 c-19 -8 -234 -101 -382 -167 -19 -9 -37 -16 -40 -17 -12 -4 -50 -20 -115
-50 -38 -18 -119 -53 -180 -79 -60 -26 -132 -58 -159 -71 -27 -14 -52 -23 -54
-20 -7 7 -7 7 78 44 41 18 84 37 95 41 11 5 55 25 98 45 43 19 89 38 103 41
13 3 24 9 24 13 0 4 13 11 28 17 l29 11 0 177 c0 100 -4 176 -9 176 -5 0 -35
-12 -66 -26 -31 -15 -61 -27 -67 -29 -9 -2 -37 -14 -150 -65 -22 -10 -58 -26
-80 -35 -22 -9 -52 -23 -68 -32 -26 -13 -30 -13 -75 14 -26 16 -54 32 -62 36
-8 4 -27 15 -42 25 -15 9 -78 47 -140 83 -62 36 -169 98 -238 138 -126 74
-168 98 -211 123 -13 7 -26 15 -29 19 -3 3 -22 13 -42 22 -32 15 -59 37 -45
37 6 0 93 -49 177 -100 53 -32 83 -49 154 -89 l33 -19 -1 181 -1 181 -120 72
c-213 127 -346 204 -350 204 -3 0 -5 -80 -5 -179z m932 -1104 c21 -11 36 -23
33 -25 -2 -2 -57 27 -122 65 -65 39 -137 81 -160 94 -24 13 -43 27 -43 31 0 4
57 -27 128 -69 70 -42 144 -85 164 -96z m978 9 c0 -6 -60 -36 -71 -36 -4 0
-47 -18 -94 -40 -47 -22 -88 -40 -91 -40 -3 0 -37 -15 -77 -34 -40 -18 -82
-36 -94 -40 -23 -7 -23 -9 -23 -187 0 -123 3 -179 11 -179 11 0 35 10 134 55
28 12 77 33 110 46 33 13 62 26 65 29 11 12 130 58 130 51 0 -4 -17 -15 -37
-23 -65 -27 -386 -167 -428 -188 -22 -10 -87 -39 -145 -63 -197 -84 -268 -116
-299 -132 -17 -8 -31 -12 -31 -7 0 5 28 21 63 37 51 23 355 155 393 171 17 7
15 364 -2 364 -7 0 -15 -4 -18 -9 -3 -5 -17 -12 -30 -15 -14 -3 -58 -21 -98
-40 -40 -18 -89 -40 -108 -49 -19 -8 -72 -31 -117 -50 -46 -20 -83 -33 -83
-29 0 4 42 25 93 46 50 22 121 53 157 69 88 39 111 49 210 92 47 20 109 48
138 61 29 13 54 24 57 24 2 0 41 17 87 38 46 21 99 44 118 52 19 7 39 17 45
22 9 8 35 11 35 4z m-1166 -651 c58 -33 106 -63 106 -67 0 -7 -124 63 -200
111 -61 39 -16 18 94 -44z m186 -112 c19 -13 30 -23 25 -23 -6 0 -21 9 -35 20
-14 11 -30 20 -37 20 -6 0 -15 4 -18 10 -9 14 24 1 65 -27z"/>
<path d="M4180 3540 c-8 -5 -35 -18 -60 -29 -115 -50 -338 -147 -430 -189 -36
-16 -117 -51 -180 -78 -63 -27 -117 -51 -120 -54 -3 -3 -10 -6 -16 -7 -7 -1
-37 -14 -68 -28 l-56 -26 0 -179 c0 -99 3 -180 6 -180 3 0 31 12 62 26 31 14
66 29 77 34 11 5 45 19 75 33 30 14 105 46 165 72 61 26 138 60 173 76 35 16
65 29 67 29 2 0 42 18 89 40 47 22 92 40 101 40 8 0 15 5 15 12 0 6 3 8 7 5 3
-4 16 -1 27 6 12 8 41 21 66 31 l45 17 0 179 c0 190 -2 196 -45 170z"/>
<path d="M4622 3355 c-41 -19 -76 -35 -78 -35 -3 0 -29 -11 -57 -24 -29 -13
-110 -50 -182 -81 -71 -31 -152 -67 -180 -80 -27 -12 -60 -25 -72 -29 -12 -4
-53 -22 -92 -41 -40 -19 -74 -35 -76 -35 -2 0 -29 -11 -59 -25 -30 -14 -60
-25 -65 -25 -11 0 -12 -13 -12 -215 0 -171 -2 -157 21 -145 11 6 20 7 20 2 0
-10 -44 -30 -347 -163 l-193 -84 0 -182 c0 -207 -10 -191 92 -141 32 15 60 28
63 28 2 0 28 11 57 24 92 41 140 63 233 102 50 21 92 42 93 46 2 4 10 8 18 8
8 0 34 9 56 20 23 11 44 18 46 15 7 -7 6 -7 -68 -38 -36 -15 -70 -31 -77 -35
-9 -6 -13 -57 -14 -180 -1 -95 1 -175 4 -178 5 -5 93 29 164 64 18 9 35 14 38
11 3 -3 -19 -16 -48 -29 -28 -13 -85 -38 -125 -57 -40 -18 -75 -33 -77 -33 -4
0 -151 -64 -240 -105 -82 -37 -128 -55 -133 -51 -2 3 8 11 24 17 16 7 61 27
99 44 39 17 115 51 170 75 l100 43 0 172 c0 96 -3 176 -6 180 -4 3 -85 -28
-180 -71 -96 -42 -223 -98 -284 -124 -261 -113 -343 -148 -383 -168 -24 -11
-42 -16 -40 -11 2 6 51 31 108 55 58 25 130 56 160 70 30 15 71 32 90 40 l35
14 0 180 c0 99 -3 180 -6 180 -3 0 -61 -25 -130 -56 -152 -68 -171 -76 -184
-79 -5 -2 -34 -14 -62 -28 -29 -14 -53 -21 -53 -16 0 8 35 27 65 35 11 2 275
119 363 160 29 13 55 24 57 24 3 0 44 18 91 40 47 22 88 40 90 40 10 0 260
114 264 120 3 5 5 86 4 182 0 196 8 184 -92 137 -35 -16 -74 -32 -88 -35 -13
-3 -24 -10 -24 -15 0 -5 -3 -8 -7 -7 -14 4 -83 -26 -83 -36 0 -5 -3 -7 -6 -4
-5 5 -43 -10 -159 -62 -131 -59 -409 -180 -413 -180 -2 0 1 7 8 15 7 8 18 15
25 15 8 0 46 15 87 34 40 18 112 50 161 71 48 21 88 40 88 44 1 3 2 84 3 179
l1 173 -25 -6 c-13 -4 -42 -15 -65 -25 -48 -22 -318 -141 -360 -159 -16 -7
-140 -61 -275 -120 l-245 -108 -3 -182 c-2 -145 0 -182 10 -178 7 3 54 23 103
45 110 48 317 139 365 159 19 8 47 21 62 29 14 8 32 14 40 14 7 -1 -8 -12 -34
-26 l-48 -24 0 -180 c0 -167 1 -179 18 -173 46 16 -11 -18 -78 -47 -41 -17
-97 -42 -125 -55 -27 -12 -110 -49 -182 -80 l-133 -59 0 -178 c0 -98 4 -178 8
-178 7 0 184 76 257 110 22 10 99 44 160 70 22 10 62 28 88 40 26 12 50 20 53
17 4 -3 -10 -13 -30 -21 l-36 -15 0 -180 c0 -100 3 -181 6 -181 4 0 46 18 95
40 49 22 96 40 104 40 8 0 15 4 15 8 0 4 17 14 38 22 20 7 66 26 102 42 36 17
85 39 110 50 25 11 53 24 62 29 23 12 41 12 33 0 -3 -5 -19 -12 -35 -16 l-30
-7 0 -183 0 -183 23 5 c12 3 27 9 32 13 6 4 60 29 120 55 175 75 515 224 570
249 28 13 89 40 138 61 48 20 87 42 88 49 7 82 2 339 -7 343 -5 2 -61 -19
-123 -47 -62 -27 -116 -50 -118 -50 -3 0 0 7 7 15 7 8 18 15 25 15 8 0 46 15
87 34 40 18 118 53 173 76 55 23 123 53 152 66 45 21 98 44 113 49 19 7 122
53 155 70 l39 20 1 168 c0 93 -3 173 -6 178 -4 7 -165 -55 -204 -79 -5 -3 -14
-7 -20 -8 -5 -1 -46 -18 -90 -39 -44 -20 -93 -42 -110 -49 -153 -66 -355 -155
-367 -163 -5 -2 -8 0 -8 6 0 5 21 17 48 27 26 10 61 25 77 34 17 9 57 27 90
40 33 12 66 29 74 36 11 10 14 49 14 184 0 93 -2 173 -5 176 -3 3 -41 -11 -84
-31 -162 -74 -275 -125 -280 -125 -2 0 -4 5 -4 10 0 6 5 10 10 10 9 0 100 39
320 138 19 9 37 16 40 16 3 1 116 50 252 110 201 88 247 112 250 130 2 11 3
91 2 176 0 126 -3 155 -15 157 -8 2 -47 -13 -87 -32z m-792 -725 c-24 -15 -37
-11 -16 5 11 8 22 12 25 9 3 -3 -1 -9 -9 -14z"/>
<path d="M6185 3285 c-26 -12 -143 -63 -230 -100 -16 -8 -59 -27 -95 -43 -36
-16 -75 -32 -88 -36 -12 -4 -23 -10 -23 -14 -1 -4 -3 -87 -4 -184 l-2 -176 51
20 c79 31 82 32 71 20 -5 -5 -37 -22 -70 -35 -33 -14 -168 -73 -300 -131 -237
-104 -240 -106 -245 -138 -7 -43 -5 -316 2 -323 5 -5 336 135 613 260 39 18
109 48 115 50 3 1 21 8 40 17 19 9 69 30 110 48 41 18 79 35 83 40 9 8 13 347
5 356 -3 2 -31 -7 -64 -22 -32 -14 -72 -32 -89 -39 -16 -7 -63 -28 -103 -46
-40 -17 -75 -29 -79 -26 -3 4 6 11 21 16 14 6 45 19 69 30 23 10 83 36 132 56
50 21 96 43 102 49 9 8 13 61 14 185 0 95 -1 174 -3 176 -2 2 -17 -2 -33 -10z"/>
<path d="M290 2633 l0 -178 232 -135 c127 -74 234 -136 238 -138 3 -1 7 79 7
178 l1 181 -55 32 c-29 18 -71 42 -91 53 -177 101 -289 167 -296 175 -6 5 -16
9 -23 9 -10 0 -13 -39 -13 -177z"/>
<path d="M6085 2488 c-60 -28 -119 -54 -130 -59 -37 -15 -180 -79 -195 -88
-12 -7 -15 -38 -15 -180 0 -95 3 -174 6 -177 6 -4 238 93 379 158 24 11 54 24
67 29 20 8 22 15 25 121 4 165 -1 248 -15 247 -7 0 -61 -23 -122 -51z"/>
<path d="M5620 2284 c-141 -62 -165 -73 -215 -94 -53 -23 -71 -31 -180 -80
-38 -18 -113 -50 -165 -72 -52 -22 -113 -48 -135 -58 -22 -10 -70 -32 -107
-48 l-66 -31 -4 -73 c-2 -40 -1 -121 2 -180 l5 -107 100 45 c55 25 102 45 105
45 3 1 25 10 50 21 25 12 101 45 170 75 69 30 148 65 175 77 28 13 121 53 208
91 128 56 157 72 158 89 1 20 1 129 -1 274 0 43 -4 62 -12 61 -7 -1 -47 -16
-88 -35z"/>
<path d="M2675 1748 c-16 -6 -33 -16 -37 -22 -4 -6 -8 -8 -8 -4 0 6 -42 -11
-195 -82 -33 -15 -71 -31 -85 -35 -14 -4 -29 -11 -35 -15 -5 -4 -75 -36 -155
-70 -80 -34 -158 -68 -175 -76 -16 -7 -75 -33 -130 -57 l-100 -45 -3 -181 c-1
-99 0 -181 2 -181 3 0 29 11 58 23 29 13 69 30 88 37 19 8 54 25 78 38 24 13
49 21 55 19 7 -2 -4 -11 -23 -19 -19 -8 -55 -24 -80 -36 -25 -11 -155 -68
-290 -127 -135 -59 -267 -117 -295 -129 -92 -42 -76 -47 -302 85 -114 67 -218
129 -231 137 l-22 14 0 -183 1 -184 70 -42 c38 -24 74 -43 79 -43 6 0 10 -4
10 -10 0 -5 4 -10 9 -10 5 0 49 -23 98 -51 48 -29 108 -63 133 -77 25 -13 50
-28 55 -32 6 -4 35 4 65 18 30 14 60 26 65 27 6 2 46 19 88 39 43 20 79 36 81
36 3 0 39 16 80 35 42 19 78 35 81 35 3 0 28 11 56 24 28 14 48 19 46 13 -2
-7 -12 -14 -23 -16 -10 -2 -22 -8 -26 -15 -12 -17 -10 -356 2 -356 5 0 33 11
62 24 29 14 163 73 298 132 135 59 265 116 290 127 25 11 47 21 50 22 37 12
246 107 255 116 8 8 16 359 7 359 -4 0 -113 -46 -174 -74 -29 -13 -183 -81
-343 -151 -159 -69 -309 -136 -333 -147 -24 -11 -45 -18 -48 -15 -6 5 117 64
153 73 12 4 23 9 23 13 0 4 6 8 13 8 6 0 42 14 79 31 37 17 82 38 100 45 l33
14 -1 179 c-1 98 -2 180 -3 182 0 1 -10 -2 -21 -8 -11 -6 -20 -7 -20 -3 0 4
17 16 38 25 88 40 132 58 141 58 6 0 11 4 11 8 0 5 6 9 13 9 6 0 35 10 62 23
28 12 68 30 90 40 22 9 74 33 115 52 l75 35 0 176 c0 114 -3 177 -10 176 -5 0
-23 -5 -40 -11z m-505 -595 c0 -9 -99 -54 -115 -52 -10 0 93 56 108 58 4 1 7
-2 7 -6z"/>
<path d="M3124 1566 c-38 -18 -81 -37 -95 -41 -13 -4 -28 -11 -34 -15 -5 -4
-55 -26 -110 -50 -55 -23 -122 -52 -150 -65 -27 -12 -124 -55 -215 -94 -91
-40 -184 -81 -207 -92 -24 -10 -47 -19 -53 -19 -6 0 -10 -67 -10 -185 l0 -185
50 20 c27 11 57 24 67 29 10 6 77 36 148 67 72 31 150 65 175 76 25 11 61 27
80 35 19 9 60 26 90 40 30 14 64 28 75 32 11 5 40 17 65 29 25 11 84 37 131
57 67 28 88 42 91 58 2 12 3 92 3 177 0 130 -2 155 -15 157 -8 2 -47 -12 -86
-31z"/>
<path d="M3680 1434 c-14 -7 -41 -20 -60 -28 -19 -8 -70 -30 -113 -50 -44 -20
-81 -36 -84 -36 -3 0 -34 -13 -70 -30 -35 -16 -66 -30 -69 -30 -2 0 -47 -20
-100 -45 -52 -25 -97 -45 -100 -45 -3 0 -29 -11 -57 -24 -29 -13 -103 -45
-164 -71 l-113 -48 0 -184 c0 -101 3 -182 8 -180 12 8 119 56 182 82 33 14 83
36 112 49 120 54 197 86 207 86 6 0 11 5 11 10 0 6 6 10 13 10 11 0 202 81
365 156 29 13 56 24 61 24 15 0 17 21 16 194 0 103 -4 170 -10 172 -6 1 -21
-4 -35 -12z"/>
<path d="M293 1127 l2 -182 70 -42 c39 -24 81 -49 95 -56 39 -21 74 -41 80
-47 3 -3 16 -11 29 -18 13 -8 39 -22 57 -33 19 -10 51 -28 72 -40 20 -12 42
-25 49 -31 6 -5 13 -5 16 -1 2 4 4 86 4 180 l0 173 -71 44 c-39 24 -118 70
-174 102 -57 33 -116 67 -130 76 -15 9 -44 26 -64 37 l-37 20 2 -182z"/>
<path d="M290 751 l0 -180 118 -69 c64 -39 133 -79 152 -90 136 -77 677 -395
684 -402 4 -5 43 7 85 26 42 20 148 67 237 105 l161 70 0 180 c0 98 -4 179 -9
179 -4 0 -43 -16 -85 -36 -43 -20 -121 -54 -173 -75 -52 -22 -119 -51 -148
-65 -62 -29 -28 -42 -307 121 -110 65 -213 125 -230 135 -16 9 -109 64 -205
120 -96 57 -199 116 -227 132 l-53 30 0 -181z"/>
</g>
</svg>
